<?xml version="1.0" standalone="no"?>
<!DOCTYPE svg PUBLIC "-//W3C//DTD SVG 20010904//EN"
 "http://www.w3.org/TR/2001/REC-SVG-20010904/DTD/svg10.dtd">
<svg version="1.0" xmlns="http://www.w3.org/2000/svg"
 width="440.000000pt" height="450.000000pt" viewBox="0 0 440.000000 450.000000"
 preserveAspectRatio="xMidYMid meet">

<g transform="translate(0.000000,450.000000) scale(0.100000,-0.100000)"
fill="#000000" stroke="none">
<path d="M0 100 l0 -100 260 0 260 0 0 84 c0 46 -3 91 -6 100 -5 14 -38 16
-260 16 l-254 0 0 -100z m90 23 l1 -28 17 28 c9 15 20 27 24 27 5 0 8 -12 9
-27 0 -26 1 -26 9 -7 12 30 28 38 46 23 23 -19 14 -63 -13 -67 -13 -2 -23 2
-23 9 0 7 -4 8 -12 2 -11 -8 -34 -9 -93 -4 -19 1 -19 16 1 46 21 33 34 32 34
-2z m270 2 c0 -14 8 -29 20 -35 14 -7 20 -7 20 0 0 5 -7 10 -16 10 -25 0 -13
44 14 48 12 2 22 -1 22 -7 0 -6 -8 -11 -17 -12 -12 0 -13 -2 -5 -6 7 -3 22 3
32 12 16 15 22 15 35 5 20 -16 19 -54 -1 -71 -14 -11 -18 -10 -30 6 -8 10 -14
14 -14 7 0 -8 -14 -10 -42 -8 -24 2 -49 4 -55 5 -17 1 -16 17 3 46 21 32 34
32 34 0z m-84 -11 c-2 -6 1 -17 7 -23 8 -8 3 -11 -18 -11 -25 0 -30 4 -31 24
-1 19 3 23 22 22 14 0 22 -6 20 -12z"/>
<path d="M175 117 c-4 -10 -5 -21 -1 -24 10 -10 18 4 13 24 -4 17 -4 17 -12 0z"/>
<path d="M440 110 c0 -11 5 -20 10 -20 6 0 10 9 10 20 0 11 -4 20 -10 20 -5 0
-10 -9 -10 -20z"/>
</g>
</svg>
